<svg width="749" height="778" viewBox="0 0 749 778" fill="none" xmlns="http://www.w3.org/2000/svg">
<path fill-rule="evenodd" clip-rule="evenodd" d="M258.447 23.1081C256.704 27.1965 252.553 34.5062 249.225 39.3502C245.895 44.195 241.691 50.8608 239.882 54.1621C235.978 61.289 229.738 90.6734 230.036 100.531C230.567 118.124 238.527 134.797 256.386 155.72C263.091 163.576 278.824 184.375 291.347 201.939C304.203 219.971 317.004 236.872 320.748 240.76C339.57 260.303 366.214 266.716 390.833 257.628C398.206 254.906 412.625 243.805 417.666 236.967C428.287 222.562 437.913 202.901 441.34 188.615C443.573 179.302 442.944 165.76 438.808 134.159C433.852 96.2903 433.559 95.527 410.701 61.0159C391.528 32.0677 381.727 19.7847 373.236 14.0629C364.445 8.13901 353.077 3.60868 341.612 1.45993C329.114 -0.88272 323.892 -0.151252 305.727 6.48549C295.458 10.2372 281.411 12.6541 272.179 12.257C265.082 11.952 262.247 14.1918 258.447 23.1081ZM23.5116 196.467C15.7886 207.457 11.6763 215.801 9.59456 224.71C4.1471 248.01 9.39232 264.81 30.4253 291.442C36.6328 299.301 50.4395 317.408 61.107 331.679C84.0445 362.367 86.0931 364.575 101.507 375.23C108.021 379.731 119.076 387.476 126.074 392.44C145.645 406.324 154.651 410.54 171.516 413.719C192.178 417.613 212.591 415.683 222.628 408.887C234.382 400.928 248.538 380.139 252.374 365.202C255.16 354.358 254.732 345.418 250.627 328.661C244.832 305 243.038 301.581 214.517 259.828C185.248 216.98 183.147 214.739 161.61 203.442C155.01 199.981 144.694 193.812 138.685 189.736C125.914 181.071 117.931 178.227 95.8176 174.461C78.1481 171.451 72.5721 171.894 54.4236 177.748C39.7333 182.487 28.595 189.231 23.5116 196.467ZM562.291 110.009C549.361 121.756 537.854 139.421 535.135 151.697C534.451 154.79 533.999 163.694 534.133 171.487C534.265 179.279 533.99 189.631 533.519 194.491C533.05 199.353 533.504 207.189 534.529 211.905C535.553 216.623 537.485 226.864 538.82 234.663C541.93 252.819 545.781 262.81 554.925 276.442C563.164 288.725 582.928 313.132 589.447 319.071C595.96 325.007 614.232 335.068 623.926 338.055C633.882 341.124 652.728 341.241 661.903 338.29C676.351 333.643 701.43 315.325 708.087 304.559C714.494 294.194 716.42 274.913 715.144 233.876C714.381 209.308 713.853 204.224 710.739 191.533C709.564 186.744 708.503 180.711 708.381 178.126C708.172 173.672 706.882 171.559 683.843 137.913C668.037 114.828 659.004 102.425 658.033 102.469C657.211 102.509 653.154 100.664 649.017 98.37C627.988 86.717 609.83 84.2931 592.824 90.8702C584.842 93.9576 569.094 103.828 562.291 110.009ZM16.2263 491.935C11.4585 498.224 2.37807 515.248 0.847415 520.766C0.103656 523.444 0.0329112 529.141 0.689118 533.425C1.3443 537.709 1.99721 543.668 2.13906 546.666C2.51883 554.714 10.1141 565.505 18.9057 570.487C23.7417 573.229 27.8041 577.006 35.3508 585.781C41.0604 592.42 49.8193 601.04 55.7052 605.816C61.3883 610.424 69.5621 617.424 73.8714 621.37C85.8337 632.324 90.3401 635.421 113.132 648.353C139.967 663.579 148.192 667.086 162.234 669.289C186.814 673.147 199.056 671.095 216.541 660.193C239.425 645.92 250.429 632.723 254.267 614.947C256.798 603.22 256.47 594.614 253.01 581.997C250.397 572.465 249.481 570.748 238.291 554.355C227.037 537.87 225.876 536.521 217.88 530.612C213.217 527.167 201.196 520.121 191.168 514.956C181.14 509.789 169.329 502.94 164.921 499.734C154.12 491.881 141.233 484.915 133.115 482.542C123.155 479.631 87.8964 475.177 72.3535 474.867C64.8588 474.717 53.5823 475.243 47.2938 476.035C37.2307 477.302 34.8718 478.092 27.6275 482.615C22.6523 485.721 18.1425 489.408 16.2263 491.935ZM334.597 384.319C326.955 393.948 320.858 404.873 310.558 427.391C306.406 436.468 300.788 448.391 298.073 453.889C292.451 465.275 283.734 492.857 283.353 500.472C282.885 509.787 284.568 517.155 290.651 532.439C300.719 557.737 302.259 568.403 299.137 591.217C296.669 609.254 296.453 661.833 298.79 675.452C299.719 680.858 301.878 690.096 303.588 695.978C306.467 705.879 307.532 707.894 317.944 723.113C328.798 738.979 329.554 739.83 339.624 747.496C353.295 757.905 362.436 763.391 373.057 767.56C403.003 779.317 428.793 780.4 462.36 771.311C478.726 766.88 488.229 762.678 505.297 752.329C517.35 745.02 521.522 743.041 526.428 742.302C532.197 741.434 533.987 740.393 558.265 723.769C581.727 707.703 584.272 705.697 587.212 700.941C588.985 698.073 593.739 692.75 597.775 689.111C601.812 685.473 609.905 677.561 615.759 671.53C622.385 664.704 636.129 652.757 652.153 639.895C666.315 628.527 679.109 618.018 680.586 616.54C682.063 615.063 691.299 605.264 701.112 594.765C720.079 574.474 724.449 568.119 730.248 552.391C732.01 547.617 736.493 537.813 740.212 530.605C747.915 515.674 749.73 506.871 747.796 493.81C745.651 479.314 742.654 471.619 734.763 460.337C726.445 448.446 724.012 446.531 684.518 420.79C652.849 400.148 642.183 394.288 605.217 377.222C580.858 365.975 571.852 362.518 558.567 359.312C536.452 353.976 499.559 348.551 484.237 348.381C477.378 348.305 467.228 347.772 461.679 347.196C426.308 343.526 404.615 346.283 375.533 358.146C353.025 367.327 342.988 373.744 334.597 384.319Z" fill="black" fill-opacity="0.05"/>
</svg>
